<mxfile host="app.diagrams.net" modified="2024-01-03T17:06:57.998Z" agent="Mozilla/5.0 (Windows NT 10.0; Win64; x64) AppleWebKit/537.36 (KHTML, like Gecko) Chrome/120.0.0.0 Safari/537.36" etag="uoxMtgnBSUU45e2HpuqP" version="22.1.16" type="device">
  <diagram name="Page-1" id="zdfs-AasULe0J1CP9fPH">
    <mxGraphModel dx="1231" dy="1158" grid="1" gridSize="10" guides="1" tooltips="1" connect="1" arrows="1" fold="1" page="1" pageScale="1" pageWidth="850" pageHeight="1100" math="0" shadow="0">
      <root>
        <mxCell id="0" />
        <mxCell id="1" parent="0" />
        <mxCell id="4Y1HdvVBECPAu4U7Cjkl-18" style="edgeStyle=orthogonalEdgeStyle;rounded=0;orthogonalLoop=1;jettySize=auto;html=1;exitX=0;exitY=0.5;exitDx=0;exitDy=0;entryX=0.5;entryY=0;entryDx=0;entryDy=0;" parent="1" source="4Y1HdvVBECPAu4U7Cjkl-1" target="PLrm1QrhNxz2fBl1tg_x-34" edge="1">
          <mxGeometry relative="1" as="geometry">
            <mxPoint x="40" y="180" as="targetPoint" />
          </mxGeometry>
        </mxCell>
        <mxCell id="PLrm1QrhNxz2fBl1tg_x-2" style="edgeStyle=orthogonalEdgeStyle;rounded=0;orthogonalLoop=1;jettySize=auto;html=1;" edge="1" parent="1" source="4Y1HdvVBECPAu4U7Cjkl-1">
          <mxGeometry relative="1" as="geometry">
            <mxPoint x="420" y="350" as="targetPoint" />
          </mxGeometry>
        </mxCell>
        <mxCell id="4Y1HdvVBECPAu4U7Cjkl-1" value="" style="ellipse;whiteSpace=wrap;html=1;fillColor=#b1ddf0;strokeColor=#10739e;" parent="1" vertex="1">
          <mxGeometry x="220" y="70" width="105" height="80" as="geometry" />
        </mxCell>
        <mxCell id="4Y1HdvVBECPAu4U7Cjkl-4" value="" style="edgeStyle=orthogonalEdgeStyle;rounded=0;orthogonalLoop=1;jettySize=auto;html=1;" parent="1" target="4Y1HdvVBECPAu4U7Cjkl-3" edge="1">
          <mxGeometry relative="1" as="geometry">
            <mxPoint x="420" y="310" as="sourcePoint" />
          </mxGeometry>
        </mxCell>
        <mxCell id="4Y1HdvVBECPAu4U7Cjkl-3" value="" style="whiteSpace=wrap;html=1;" parent="1" vertex="1">
          <mxGeometry x="360" y="350" width="120" height="60" as="geometry" />
        </mxCell>
        <mxCell id="4Y1HdvVBECPAu4U7Cjkl-7" value="" style="edgeStyle=orthogonalEdgeStyle;rounded=0;orthogonalLoop=1;jettySize=auto;html=1;" parent="1" source="4Y1HdvVBECPAu4U7Cjkl-5" target="4Y1HdvVBECPAu4U7Cjkl-6" edge="1">
          <mxGeometry relative="1" as="geometry" />
        </mxCell>
        <mxCell id="4Y1HdvVBECPAu4U7Cjkl-5" value="OPEN ACCOUNT" style="text;html=1;strokeColor=#996185;fillColor=#e6d0de;align=center;verticalAlign=middle;whiteSpace=wrap;rounded=0;gradientColor=#d5739d;" parent="1" vertex="1">
          <mxGeometry x="360" y="355" width="120" height="50" as="geometry" />
        </mxCell>
        <mxCell id="PLrm1QrhNxz2fBl1tg_x-9" value="" style="edgeStyle=orthogonalEdgeStyle;rounded=0;orthogonalLoop=1;jettySize=auto;html=1;" edge="1" parent="1" source="4Y1HdvVBECPAu4U7Cjkl-6" target="PLrm1QrhNxz2fBl1tg_x-7">
          <mxGeometry relative="1" as="geometry" />
        </mxCell>
        <mxCell id="4Y1HdvVBECPAu4U7Cjkl-6" value="&lt;span style=&quot;font-size: 15px;&quot;&gt;Enter Name,&amp;nbsp;&lt;br&gt;Mobile Number,&lt;br&gt;Location,&lt;br&gt;Pincode,&lt;br&gt;Aadhar Card Number,&lt;br&gt;&lt;/span&gt;" style="shape=hexagon;perimeter=hexagonPerimeter2;whiteSpace=wrap;html=1;fixedSize=1;fillColor=#e6d0de;gradientColor=#d5739d;strokeColor=#996185;" parent="1" vertex="1">
          <mxGeometry x="575" y="320" width="230" height="120" as="geometry" />
        </mxCell>
        <mxCell id="4Y1HdvVBECPAu4U7Cjkl-8" value="1" style="text;html=1;strokeColor=none;fillColor=none;align=center;verticalAlign=middle;whiteSpace=wrap;rounded=0;fontSize=16;fontStyle=1" parent="1" vertex="1">
          <mxGeometry x="425" y="230" width="20" height="20" as="geometry" />
        </mxCell>
        <mxCell id="PLrm1QrhNxz2fBl1tg_x-30" value="" style="edgeStyle=none;rounded=0;orthogonalLoop=1;jettySize=auto;html=1;" edge="1" parent="1" source="PLrm1QrhNxz2fBl1tg_x-7" target="PLrm1QrhNxz2fBl1tg_x-10">
          <mxGeometry relative="1" as="geometry">
            <Array as="points">
              <mxPoint x="690" y="630" />
            </Array>
          </mxGeometry>
        </mxCell>
        <mxCell id="PLrm1QrhNxz2fBl1tg_x-7" value="Show all the entered details to confirm" style="rounded=1;whiteSpace=wrap;html=1;fillColor=#e6d0de;gradientColor=#d5739d;strokeColor=#996185;" vertex="1" parent="1">
          <mxGeometry x="630" y="530" width="120" height="60" as="geometry" />
        </mxCell>
        <mxCell id="PLrm1QrhNxz2fBl1tg_x-14" value="" style="edgeStyle=orthogonalEdgeStyle;rounded=0;orthogonalLoop=1;jettySize=auto;html=1;" edge="1" parent="1" source="PLrm1QrhNxz2fBl1tg_x-10" target="PLrm1QrhNxz2fBl1tg_x-13">
          <mxGeometry relative="1" as="geometry" />
        </mxCell>
        <mxCell id="PLrm1QrhNxz2fBl1tg_x-10" value="Enter Account Number" style="rounded=1;whiteSpace=wrap;html=1;fillColor=#d5e8d4;gradientColor=#97d077;strokeColor=#82b366;" vertex="1" parent="1">
          <mxGeometry x="600" y="670" width="180" height="40" as="geometry" />
        </mxCell>
        <mxCell id="PLrm1QrhNxz2fBl1tg_x-13" value="Use the Bank services i.e&lt;br&gt;1. Check balance&lt;br&gt;2. insert amount&lt;br&gt;3. withdraw amount&lt;br&gt;4. edit account details&lt;br&gt;5. help&lt;br&gt;6. to create another account&lt;br&gt;7. exit" style="whiteSpace=wrap;html=1;aspect=fixed;fillColor=#dae8fc;gradientColor=#7ea6e0;strokeColor=#6c8ebf;" vertex="1" parent="1">
          <mxGeometry x="600" y="780" width="180" height="180" as="geometry" />
        </mxCell>
        <mxCell id="PLrm1QrhNxz2fBl1tg_x-16" value="" style="ellipse;shape=cloud;whiteSpace=wrap;html=1;fillColor=#d5e8d4;gradientColor=#97d077;strokeColor=#82b366;" vertex="1" parent="1">
          <mxGeometry x="64.36999999999999" y="780" width="251.25" height="130" as="geometry" />
        </mxCell>
        <mxCell id="PLrm1QrhNxz2fBl1tg_x-17" value="Add all entered details inside the list" style="text;html=1;strokeColor=none;fillColor=none;align=center;verticalAlign=middle;whiteSpace=wrap;rounded=0;" vertex="1" parent="1">
          <mxGeometry x="110" y="830" width="160" height="35" as="geometry" />
        </mxCell>
        <mxCell id="PLrm1QrhNxz2fBl1tg_x-32" value="&lt;b&gt;Y&lt;/b&gt;" style="text;html=1;strokeColor=none;fillColor=none;align=center;verticalAlign=middle;whiteSpace=wrap;rounded=0;" vertex="1" parent="1">
          <mxGeometry x="690" y="600" width="60" height="60" as="geometry" />
        </mxCell>
        <mxCell id="PLrm1QrhNxz2fBl1tg_x-34" value="" style="shape=sumEllipse;perimeter=ellipsePerimeter;whiteSpace=wrap;html=1;backgroundOutline=1;fillColor=#ed311d;strokeColor=#ae4132;gradientColor=#d1a8a8;" vertex="1" parent="1">
          <mxGeometry x="100" y="350" width="50" height="50" as="geometry" />
        </mxCell>
        <mxCell id="PLrm1QrhNxz2fBl1tg_x-40" value="WELCOME" style="text;html=1;strokeColor=none;fillColor=none;align=center;verticalAlign=middle;whiteSpace=wrap;rounded=0;" vertex="1" parent="1">
          <mxGeometry x="242.5" y="95" width="60" height="35" as="geometry" />
        </mxCell>
        <mxCell id="PLrm1QrhNxz2fBl1tg_x-42" value="Add&amp;nbsp;" style="text;html=1;strokeColor=none;fillColor=none;align=center;verticalAlign=middle;whiteSpace=wrap;rounded=0;" vertex="1" parent="1">
          <mxGeometry x="445" y="600" width="85" height="30" as="geometry" />
        </mxCell>
        <mxCell id="PLrm1QrhNxz2fBl1tg_x-44" style="edgeStyle=none;rounded=0;orthogonalLoop=1;jettySize=auto;html=1;exitX=0.75;exitY=1;exitDx=0;exitDy=0;" edge="1" parent="1" source="PLrm1QrhNxz2fBl1tg_x-40" target="PLrm1QrhNxz2fBl1tg_x-40">
          <mxGeometry relative="1" as="geometry" />
        </mxCell>
        <mxCell id="PLrm1QrhNxz2fBl1tg_x-52" value="" style="shape=flexArrow;endArrow=classic;html=1;rounded=0;exitX=0;exitY=0.5;exitDx=0;exitDy=0;endWidth=36.470588235294116;endSize=14.883333333333333;width=20;" edge="1" parent="1" source="PLrm1QrhNxz2fBl1tg_x-13">
          <mxGeometry width="50" height="50" relative="1" as="geometry">
            <mxPoint x="460" y="910" as="sourcePoint" />
            <mxPoint x="320" y="870" as="targetPoint" />
          </mxGeometry>
        </mxCell>
        <mxCell id="PLrm1QrhNxz2fBl1tg_x-67" value="" style="verticalLabelPosition=bottom;verticalAlign=top;html=1;shape=mxgraph.basic.frame;dx=10;whiteSpace=wrap;fillColor=#fff2cc;gradientColor=#ffd966;strokeColor=#d6b656;" vertex="1" parent="1">
          <mxGeometry x="50" y="980" width="300" height="110" as="geometry" />
        </mxCell>
        <mxCell id="PLrm1QrhNxz2fBl1tg_x-70" value="" style="shape=singleArrow;direction=south;whiteSpace=wrap;html=1;arrowWidth=0.2941175273820515;arrowSize=0.44453822544642857;fillColor=#bac8d3;strokeColor=#23445d;" vertex="1" parent="1">
          <mxGeometry x="210" y="900" width="60" height="70" as="geometry" />
        </mxCell>
        <mxCell id="PLrm1QrhNxz2fBl1tg_x-71" value="&amp;nbsp;Do the respective Operation&amp;nbsp;" style="text;html=1;strokeColor=none;fillColor=none;align=center;verticalAlign=middle;whiteSpace=wrap;rounded=0;" vertex="1" parent="1">
          <mxGeometry x="120" y="1020" width="160" height="30" as="geometry" />
        </mxCell>
        <mxCell id="PLrm1QrhNxz2fBl1tg_x-86" value="" style="edgeStyle=elbowEdgeStyle;elbow=vertical;endArrow=classic;html=1;curved=0;rounded=0;endSize=8;startSize=8;exitX=0;exitY=0.25;exitDx=0;exitDy=0;entryX=0.486;entryY=0.049;entryDx=0;entryDy=0;entryPerimeter=0;" edge="1" parent="1" source="PLrm1QrhNxz2fBl1tg_x-32" target="PLrm1QrhNxz2fBl1tg_x-16">
          <mxGeometry width="50" height="50" relative="1" as="geometry">
            <mxPoint x="285" y="850" as="sourcePoint" />
            <mxPoint x="190" y="650" as="targetPoint" />
            <Array as="points">
              <mxPoint x="330" y="630" />
            </Array>
          </mxGeometry>
        </mxCell>
        <mxCell id="PLrm1QrhNxz2fBl1tg_x-92" value="6" style="text;html=1;strokeColor=none;fillColor=none;align=center;verticalAlign=middle;whiteSpace=wrap;rounded=0;" vertex="1" parent="1">
          <mxGeometry x="770" y="830" width="60" height="30" as="geometry" />
        </mxCell>
        <mxCell id="PLrm1QrhNxz2fBl1tg_x-101" value="" style="edgeStyle=elbowEdgeStyle;elbow=vertical;endArrow=classic;html=1;curved=0;rounded=0;endSize=8;startSize=8;" edge="1" parent="1">
          <mxGeometry width="50" height="50" relative="1" as="geometry">
            <mxPoint x="820" y="870" as="sourcePoint" />
            <mxPoint x="450" y="350" as="targetPoint" />
            <Array as="points">
              <mxPoint x="770" y="210" />
            </Array>
          </mxGeometry>
        </mxCell>
        <mxCell id="PLrm1QrhNxz2fBl1tg_x-105" value="" style="endArrow=classic;html=1;rounded=0;exitX=1;exitY=0.5;exitDx=0;exitDy=0;" edge="1" parent="1" source="PLrm1QrhNxz2fBl1tg_x-13">
          <mxGeometry width="50" height="50" relative="1" as="geometry">
            <mxPoint x="770" y="920" as="sourcePoint" />
            <mxPoint x="820" y="870" as="targetPoint" />
          </mxGeometry>
        </mxCell>
        <mxCell id="PLrm1QrhNxz2fBl1tg_x-107" value="Text" style="text;html=1;strokeColor=none;fillColor=none;align=center;verticalAlign=middle;whiteSpace=wrap;rounded=0;" vertex="1" parent="1">
          <mxGeometry x="660" y="790" width="60" height="30" as="geometry" />
        </mxCell>
        <mxCell id="PLrm1QrhNxz2fBl1tg_x-111" value="&lt;font style=&quot;font-size: 19px;&quot;&gt;2&lt;/font&gt;" style="text;html=1;strokeColor=none;fillColor=none;align=center;verticalAlign=middle;whiteSpace=wrap;rounded=0;fontSize=19;fontFamily=Comic Sans MS;fontStyle=1" vertex="1" parent="1">
          <mxGeometry x="100" y="205" width="100" height="65" as="geometry" />
        </mxCell>
        <mxCell id="PLrm1QrhNxz2fBl1tg_x-114" value="" style="edgeStyle=elbowEdgeStyle;elbow=vertical;endArrow=classic;html=1;curved=0;rounded=0;endSize=8;startSize=8;exitX=0;exitY=0.75;exitDx=0;exitDy=0;" edge="1" parent="1" source="PLrm1QrhNxz2fBl1tg_x-7">
          <mxGeometry width="50" height="50" relative="1" as="geometry">
            <mxPoint x="340" y="570" as="sourcePoint" />
            <mxPoint x="130" y="410" as="targetPoint" />
            <Array as="points">
              <mxPoint x="170" y="550" />
            </Array>
          </mxGeometry>
        </mxCell>
        <mxCell id="PLrm1QrhNxz2fBl1tg_x-115" value="NO" style="text;strokeColor=none;fillColor=none;html=1;fontSize=11;fontStyle=0;verticalAlign=middle;align=center;" vertex="1" parent="1">
          <mxGeometry x="375" y="520" width="90" height="30" as="geometry" />
        </mxCell>
        <mxCell id="PLrm1QrhNxz2fBl1tg_x-116" value="Exit" style="text;strokeColor=none;fillColor=none;html=1;fontSize=24;fontStyle=1;verticalAlign=middle;align=center;" vertex="1" parent="1">
          <mxGeometry x="20" y="360" width="100" height="30" as="geometry" />
        </mxCell>
        <mxCell id="PLrm1QrhNxz2fBl1tg_x-118" value="RESULT" style="text;html=1;strokeColor=none;fillColor=none;align=center;verticalAlign=middle;whiteSpace=wrap;rounded=0;" vertex="1" parent="1">
          <mxGeometry x="465" y="1015" width="60" height="30" as="geometry" />
        </mxCell>
        <mxCell id="PLrm1QrhNxz2fBl1tg_x-122" value="" style="shape=ext;double=1;rounded=1;whiteSpace=wrap;html=1;fillColor=#b1ddf0;strokeColor=#10739e;" vertex="1" parent="1">
          <mxGeometry x="455" y="1010" width="135" height="40" as="geometry" />
        </mxCell>
        <mxCell id="PLrm1QrhNxz2fBl1tg_x-123" value="Result" style="text;html=1;strokeColor=none;fillColor=none;align=center;verticalAlign=middle;whiteSpace=wrap;rounded=0;" vertex="1" parent="1">
          <mxGeometry x="490" y="1015" width="60" height="35" as="geometry" />
        </mxCell>
        <mxCell id="PLrm1QrhNxz2fBl1tg_x-124" value="" style="shape=singleArrow;direction=north;whiteSpace=wrap;html=1;fillColor=#fad9d5;strokeColor=#ae4132;" vertex="1" parent="1">
          <mxGeometry x="130" y="900" width="60" height="70" as="geometry" />
        </mxCell>
        <mxCell id="PLrm1QrhNxz2fBl1tg_x-125" value="" style="shape=singleArrow;whiteSpace=wrap;html=1;" vertex="1" parent="1">
          <mxGeometry x="360" y="1020" width="90" height="30" as="geometry" />
        </mxCell>
        <mxCell id="PLrm1QrhNxz2fBl1tg_x-126" value="Update" style="text;html=1;strokeColor=none;fillColor=none;align=center;verticalAlign=middle;whiteSpace=wrap;rounded=0;" vertex="1" parent="1">
          <mxGeometry x="175" y="920" width="50" height="20" as="geometry" />
        </mxCell>
        <mxCell id="PLrm1QrhNxz2fBl1tg_x-127" value="1 / 2 / 3 / 4 / 5&amp;nbsp;" style="text;html=1;strokeColor=none;fillColor=none;align=center;verticalAlign=middle;whiteSpace=wrap;rounded=0;" vertex="1" parent="1">
          <mxGeometry x="360" y="820" width="220" height="30" as="geometry" />
        </mxCell>
      </root>
    </mxGraphModel>
  </diagram>
</mxfile>
